<svg xmlns="http://www.w3.org/2000/svg" version="1.1" xmlns:xlink="http://www.w3.org/1999/xlink" xmlns:svgjs="http://svgjs.dev/svgjs" width="1000" height="1000" viewBox="0 0 1000 1000"><rect width="1000" height="1000" fill="#f2d314"></rect><g transform="matrix(0.7,0,0,0.7,149.57575757575756,408.5706925576369)"><svg viewBox="0 0 396 103" data-background-color="#f2d314" preserveAspectRatio="xMidYMid meet" height="260" width="1000" xmlns="http://www.w3.org/2000/svg" xmlns:xlink="http://www.w3.org/1999/xlink"><g id="tight-bounds" transform="matrix(1,0,0,1,0.2400000000000091,0.24295970639229836)"><svg viewBox="0 0 395.52 102.51408058721537" height="102.51408058721537" width="395.52"><g><svg viewBox="0 0 590.3440701097264 153.01016276651805" height="102.51408058721537" width="395.52"><g><rect width="9.054892283252979" height="153.01016276651805" x="162.06527132581124" y="0" fill="#414a81" opacity="1" stroke-width="0" stroke="transparent" fill-opacity="1" class="rect-o-0" data-fill-palette-color="primary" rx="1%" id="o-0" data-palette-color="#414a81"></rect></g><g transform="matrix(1,0,0,1,194.82407010972645,0.3806222954390961)"><svg viewBox="0 0 395.52 152.24891817563986" height="152.24891817563986" width="395.52"><g><svg viewBox="0 0 395.52 152.24891817563986" height="152.24891817563986" width="395.52"><g><svg viewBox="0 0 395.52 110.88529801324502" height="110.88529801324502" width="395.52"><g transform="matrix(1,0,0,1,0,0)"><svg width="395.52" viewBox="4 -28.750001907348633 113.25 28.750001907348633" height="110.88529801324502" data-palette-color="#414a81"><svg></svg><g class="undefined-text-0" data-fill-palette-color="primary" id="text-0"><path xmlns="http://www.w3.org/2000/svg" d="M4-25.3v0l5.85-3.45h10.35v5.65h-9.9v17.25h9.7v5.85h-10.15l-5.85-3.4zM38.45-25.3v0l-5.65-3.45h-10.35v5.65h9.7v17.25h-9.7v5.85h10.35l5.65-3.4zM77.8-28.75v5.65h-14.4v23.1h-6.9v-23.1h-13.15v-5.65zM82.8-14.75v-10.55l5.7-3.45h10.3v5.9h-9.9v5.65h9.9v5.85h-10.3zM117.25-3.4v-10.35l-5.9-3.45h-10.3v5.85h9.9v5.7h-9.7v5.65h10.1zM82.8-9.1h6.3v3.45h9.7v5.65h-10.15l-5.85-3.4zM110.95-19.45h6.3v-5.85l-5.9-3.45h-10.3v5.9h9.9z" fill="#414a81" fill-rule="nonzero" stroke="none" stroke-width="1" stroke-linecap="butt" stroke-linejoin="miter" stroke-miterlimit="10" stroke-dasharray="" stroke-dashoffset="0" font-family="none" font-weight="none" font-size="none" text-anchor="none" style="mix-blend-mode: normal" data-fill-palette-color="primary" opacity="1"></path></g></svg></g></svg></g><g transform="matrix(1,0,0,1,0,134.58920451390728)"><svg viewBox="0 0 395.52 17.65971366173259" height="17.65971366173259" width="395.52"><g transform="matrix(1,0,0,1,0,0)"><svg width="395.52" viewBox="0.5 -36 1030.1600341796875 46" height="17.65971366173259" data-palette-color="#9d270a"><path d="M34.75-35L34.75-31.25 21.25-31.25 21.25 0 14 0 14-31.25 0.5-31.25 0.5-35 34.75-35ZM53.5-26L53.5-22.5 47.5-22.5Q44.1-22.5 42.3-20.68 40.5-18.85 40.5-15.25L40.5-15.25 40.5 0 33.5 0 33.5-15.25Q33.5-20.35 36.72-23.18 39.95-26 46-26L46-26 53.5-26ZM57.5-10.25L57.5-26 64.5-26 64.5-10.25Q64.5-6.65 66.3-5.08 68.09-3.5 71.5-3.5L71.5-3.5 78-3.5 78-26 85-26 85 0 71.5 0Q64.34 0 60.92-2.58 57.5-5.15 57.5-10.25L57.5-10.25ZM97.99-20.5L97.99-20.5Q97.99-19.35 99.02-18.4 100.04-17.45 102.49-16.75L102.49-16.75 110.24-14.5Q113.84-13.45 115.79-11.65 117.74-9.85 117.74-7L117.74-7Q117.74-5.2 116.99-3.73 116.24-2.25 114.54-1.2 112.84-0.15 110.14 0.43 107.44 1 103.49 1L103.49 1Q101.44 1 99.47 0.7 97.49 0.4 95.72-0.13 93.94-0.65 92.49-1.33 91.04-2 89.99-2.75L89.99-2.75 91.99-5.75Q94.09-4.45 96.92-3.48 99.74-2.5 103.49-2.5L103.49-2.5Q107.24-2.5 108.74-3.5 110.24-4.5 110.24-6L110.24-6Q110.24-7.15 109.19-8.08 108.14-9 105.49-9.75L105.49-9.75 97.74-12Q94.54-12.95 92.52-14.73 90.49-16.5 90.49-19.5L90.49-19.5Q90.49-21.1 91.22-22.48 91.94-23.85 93.49-24.85 95.04-25.85 97.44-26.43 99.84-27 103.24-27L103.24-27Q107.39-27 110.77-25.88 114.14-24.75 116.24-23.25L116.24-23.25 114.24-20.25Q112.19-21.55 109.59-22.53 106.99-23.5 103.24-23.5L103.24-23.5Q100.59-23.5 99.29-22.65 97.99-21.8 97.99-20.5ZM123.99-9.5L123.99-22.5 119.24-22.5 119.24-26 123.99-26 123.99-34 130.99-34 130.99-26 138.74-26 138.74-22.5 130.99-22.5 130.99-9.5Q130.99-7.6 131.42-6.28 131.84-4.95 132.56-4.13 133.29-3.3 134.24-2.9 135.19-2.5 136.24-2.5L136.24-2.5Q137.74-2.5 139.14-2.98 140.54-3.45 141.49-4L141.49-4 142.99-0.75Q141.49 0 139.56 0.5 137.64 1 135.74 1L135.74 1Q130.09 1 127.04-1.8 123.99-4.6 123.99-9.5L123.99-9.5ZM182.49-2.5L182.49-2.5Q184.94-2.5 186.91-3.18 188.89-3.85 190.29-5.28 191.69-6.7 192.46-8.93 193.24-11.15 193.24-14.25L193.24-14.25 193.24-35 200.49-35 200.49-14.25Q200.49-6.55 195.79-2.78 191.09 1 182.49 1L182.49 1Q173.84 1 169.16-2.78 164.49-6.55 164.49-14.25L164.49-14.25 164.49-35 171.74-35 171.74-14.25Q171.74-11.15 172.51-8.93 173.29-6.7 174.69-5.28 176.09-3.85 178.06-3.18 180.04-2.5 182.49-2.5ZM213.48-20.5L213.48-20.5Q213.48-19.35 214.51-18.4 215.53-17.45 217.98-16.75L217.98-16.75 225.73-14.5Q229.33-13.45 231.28-11.65 233.23-9.85 233.23-7L233.23-7Q233.23-5.2 232.48-3.73 231.73-2.25 230.03-1.2 228.33-0.15 225.63 0.43 222.93 1 218.98 1L218.98 1Q216.93 1 214.96 0.7 212.98 0.4 211.21-0.13 209.43-0.65 207.98-1.33 206.53-2 205.48-2.75L205.48-2.75 207.48-5.75Q209.58-4.45 212.41-3.48 215.23-2.5 218.98-2.5L218.98-2.5Q222.73-2.5 224.23-3.5 225.73-4.5 225.73-6L225.73-6Q225.73-7.15 224.68-8.08 223.63-9 220.98-9.75L220.98-9.75 213.23-12Q210.03-12.95 208.01-14.73 205.98-16.5 205.98-19.5L205.98-19.5Q205.98-21.1 206.71-22.48 207.43-23.85 208.98-24.85 210.53-25.85 212.93-26.43 215.33-27 218.73-27L218.73-27Q222.88-27 226.26-25.88 229.63-24.75 231.73-23.25L231.73-23.25 229.73-20.25Q227.68-21.55 225.08-22.53 222.48-23.5 218.73-23.5L218.73-23.5Q216.08-23.5 214.78-22.65 213.48-21.8 213.48-20.5ZM277.23-32.5L285.73-32.5 293.53-4.75 294.03-4.75 302.48-35 309.73-35 299.98 0 289.23 0 281.73-26.75 281.23-26.75 273.73 0 262.98 0 253.23-35 260.48-35 268.93-4.75 269.43-4.75 277.23-32.5ZM321.48-25.5L321.48 0 314.48 0 314.48-25.5 321.48-25.5ZM321.73-32.25L321.73-32.25Q321.73-30.75 320.7-29.63 319.68-28.5 317.98-28.5L317.98-28.5Q316.28-28.5 315.25-29.63 314.23-30.75 314.23-32.25L314.23-32.25Q314.23-33.75 315.25-34.88 316.28-36 317.98-36L317.98-36Q319.63-36 320.68-34.88 321.73-33.75 321.73-32.25ZM330.97-9.5L330.97-22.5 326.22-22.5 326.22-26 330.97-26 330.97-34 337.97-34 337.97-26 345.72-26 345.72-22.5 337.97-22.5 337.97-9.5Q337.97-7.6 338.4-6.28 338.82-4.95 339.55-4.13 340.27-3.3 341.22-2.9 342.17-2.5 343.22-2.5L343.22-2.5Q344.72-2.5 346.12-2.98 347.52-3.45 348.47-4L348.47-4 349.97-0.75Q348.47 0 346.55 0.5 344.62 1 342.72 1L342.72 1Q337.07 1 334.02-1.8 330.97-4.6 330.97-9.5L330.97-9.5ZM381.47-15.75L381.47 0 374.47 0 374.47-15.75Q374.47-19.35 372.67-20.93 370.87-22.5 367.47-22.5L367.47-22.5 360.97-22.5 360.97 0 353.97 0 353.97-35 360.97-35 360.97-26 367.47-26Q374.62-26 378.05-23.43 381.47-20.85 381.47-15.75L381.47-15.75ZM441.97-35L425.72-10.5 425.72 0 418.47 0 418.47-10.5 402.22-35 410.22-35 421.97-17.25 422.22-17.25 433.97-35 441.97-35ZM454.46-2.25L454.46-2.25Q456.06-2.25 457.46-2.85 458.86-3.45 459.91-4.73 460.96-6 461.59-8.05 462.21-10.1 462.21-13L462.21-13Q462.21-15.9 461.59-17.95 460.96-20 459.91-21.28 458.86-22.55 457.46-23.15 456.06-23.75 454.46-23.75L454.46-23.75Q452.86-23.75 451.46-23.15 450.06-22.55 449.01-21.28 447.96-20 447.34-17.95 446.71-15.9 446.71-13L446.71-13Q446.71-10.1 447.34-8.05 447.96-6 449.01-4.73 450.06-3.45 451.46-2.85 452.86-2.25 454.46-2.25ZM454.46-27L454.46-27Q457.81-27 460.64-26.08 463.46-25.15 465.46-23.38 467.46-21.6 468.59-18.98 469.71-16.35 469.71-13L469.71-13Q469.71-9.6 468.59-7 467.46-4.4 465.46-2.63 463.46-0.85 460.64 0.08 457.81 1 454.46 1L454.46 1Q451.06 1 448.26 0.08 445.46-0.85 443.46-2.63 441.46-4.4 440.34-7 439.21-9.6 439.21-13L439.21-13Q439.21-16.35 440.34-18.98 441.46-21.6 443.46-23.38 445.46-25.15 448.26-26.08 451.06-27 454.46-27ZM475.46-10.25L475.46-26 482.46-26 482.46-10.25Q482.46-6.65 484.26-5.08 486.06-3.5 489.46-3.5L489.46-3.5 495.96-3.5 495.96-26 502.96-26 502.96 0 489.46 0Q482.31 0 478.89-2.58 475.46-5.15 475.46-10.25L475.46-10.25ZM529.71-26L529.71-22.5 523.71-22.5Q520.31-22.5 518.51-20.68 516.71-18.85 516.71-15.25L516.71-15.25 516.71 0 509.71 0 509.71-15.25Q509.71-20.35 512.93-23.18 516.16-26 522.21-26L522.21-26 529.71-26ZM551.2 0L551.2-35 568.2-35Q572.05-35 574.88-34.33 577.7-33.65 579.55-32.43 581.4-31.2 582.3-29.5 583.2-27.8 583.2-25.75L583.2-25.75Q583.2-23.1 581.7-21.15 580.2-19.2 577.2-18.25L577.2-18.25Q580.95-17.5 583.08-15.33 585.2-13.15 585.2-9.75L585.2-9.75Q585.2-5.25 581.48-2.63 577.75 0 569.7 0L569.7 0 551.2 0ZM569.7-16L558.45-16 558.45-3.75 569.7-3.75Q573.45-3.75 575.45-5.25 577.45-6.75 577.45-9.75L577.45-9.75Q577.45-12.95 575.45-14.48 573.45-16 569.7-16L569.7-16ZM558.45-19.75L568.2-19.75Q575.45-19.75 575.45-25.75L575.45-25.75Q575.45-28.4 573.63-29.83 571.8-31.25 568.2-31.25L568.2-31.25 558.45-31.25 558.45-19.75ZM598.45-25.5L598.45 0 591.45 0 591.45-25.5 598.45-25.5ZM598.7-32.25L598.7-32.25Q598.7-30.75 597.67-29.63 596.65-28.5 594.95-28.5L594.95-28.5Q593.25-28.5 592.22-29.63 591.2-30.75 591.2-32.25L591.2-32.25Q591.2-33.75 592.22-34.88 593.25-36 594.95-36L594.95-36Q596.6-36 597.65-34.88 598.7-33.75 598.7-32.25ZM625.7 0L617.95-11.5 612.7-11.5 612.7 0 605.7 0 605.7-35 612.7-35 612.7-15 617.95-15 625.7-26 633.2-26 624.45-13.5 633.7 0 625.7 0ZM651.69-2.5L651.69-2.5Q654.14-2.5 656.27-3.35 658.39-4.2 660.44-5.75L660.44-5.75 662.44-2.75Q661.49-1.9 660.22-1.2 658.94-0.5 657.47-0.03 655.99 0.45 654.39 0.73 652.79 1 651.19 1L651.19 1Q647.64 1 644.72 0.08 641.79-0.85 639.74-2.63 637.69-4.4 636.57-7 635.44-9.6 635.44-13L635.44-13Q635.44-16.35 636.52-18.98 637.59-21.6 639.52-23.38 641.44-25.15 644.09-26.08 646.74-27 649.94-27L649.94-27Q652.94-27 655.59-26.1 658.24-25.2 660.19-23.48 662.14-21.75 663.29-19.3 664.44-16.85 664.44-13.75L664.44-13.75 664.44-10.25 643.09-10.25Q643.69-6.1 645.97-4.3 648.24-2.5 651.69-2.5ZM649.94-23.75L649.94-23.75Q648.49-23.75 647.24-23.2 645.99-22.65 645.07-21.45 644.14-20.25 643.57-18.35 642.99-16.45 642.94-13.75L642.94-13.75 656.94-13.75Q656.94-16.35 656.34-18.25 655.74-20.15 654.77-21.38 653.79-22.6 652.52-23.18 651.24-23.75 649.94-23.75ZM673.19-23.5L669.19-23.5 667.69-35 674.69-35 673.19-23.5ZM685.19-20.5L685.19-20.5Q685.19-19.35 686.21-18.4 687.24-17.45 689.69-16.75L689.69-16.75 697.44-14.5Q701.04-13.45 702.99-11.65 704.94-9.85 704.94-7L704.94-7Q704.94-5.2 704.19-3.73 703.44-2.25 701.74-1.2 700.04-0.15 697.34 0.43 694.64 1 690.69 1L690.69 1Q688.64 1 686.66 0.7 684.69 0.4 682.91-0.13 681.14-0.65 679.69-1.33 678.24-2 677.19-2.75L677.19-2.75 679.19-5.75Q681.29-4.45 684.11-3.48 686.94-2.5 690.69-2.5L690.69-2.5Q694.44-2.5 695.94-3.5 697.44-4.5 697.44-6L697.44-6Q697.44-7.15 696.39-8.08 695.34-9 692.69-9.75L692.69-9.75 684.94-12Q681.74-12.95 679.71-14.73 677.69-16.5 677.69-19.5L677.69-19.5Q677.69-21.1 678.41-22.48 679.14-23.85 680.69-24.85 682.24-25.85 684.64-26.43 687.04-27 690.44-27L690.44-27Q694.59-27 697.96-25.88 701.34-24.75 703.44-23.25L703.44-23.25 701.44-20.25Q699.39-21.55 696.79-22.53 694.19-23.5 690.44-23.5L690.44-23.5Q687.79-23.5 686.49-22.65 685.19-21.8 685.19-20.5ZM748.93-32.5L757.43-32.5 765.23-4.75 765.73-4.75 774.18-35 781.43-35 771.68 0 760.93 0 753.43-26.75 752.93-26.75 745.43 0 734.68 0 724.93-35 732.18-35 740.63-4.75 741.13-4.75 748.93-32.5ZM798.93-2.5L798.93-2.5Q801.38-2.5 803.51-3.35 805.63-4.2 807.68-5.75L807.68-5.75 809.68-2.75Q808.73-1.9 807.46-1.2 806.18-0.5 804.71-0.03 803.23 0.45 801.63 0.73 800.03 1 798.43 1L798.43 1Q794.88 1 791.96 0.08 789.03-0.85 786.98-2.63 784.93-4.4 783.81-7 782.68-9.6 782.68-13L782.68-13Q782.68-16.35 783.76-18.98 784.83-21.6 786.76-23.38 788.68-25.15 791.33-26.08 793.98-27 797.18-27L797.18-27Q800.18-27 802.83-26.1 805.48-25.2 807.43-23.48 809.38-21.75 810.53-19.3 811.68-16.85 811.68-13.75L811.68-13.75 811.68-10.25 790.33-10.25Q790.93-6.1 793.21-4.3 795.48-2.5 798.93-2.5ZM797.18-23.75L797.18-23.75Q795.73-23.75 794.48-23.2 793.23-22.65 792.31-21.45 791.38-20.25 790.81-18.35 790.23-16.45 790.18-13.75L790.18-13.75 804.18-13.75Q804.18-16.35 803.58-18.25 802.98-20.15 802.01-21.38 801.03-22.6 799.76-23.18 798.48-23.75 797.18-23.75ZM824.43-35L824.43 0 817.43 0 817.43-35 824.43-35ZM838.43-35L838.43 0 831.43 0 831.43-35 838.43-35ZM866.92-18.5L866.92-14 843.92-14 843.92-18.5 866.92-18.5ZM879.42-3.5L885.67-3.5Q887.37-3.5 888.8-4.03 890.22-4.55 891.25-5.7 892.27-6.85 892.85-8.65 893.42-10.45 893.42-13L893.42-13Q893.42-15.55 892.85-17.35 892.27-19.15 891.25-20.3 890.22-21.45 888.8-21.98 887.37-22.5 885.67-22.5L885.67-22.5 879.42-22.5 879.42-3.5ZM885.67 0L872.42 0 872.42-35 879.42-35 879.42-26 885.67-26Q889.12-26 891.95-25.1 894.77-24.2 896.77-22.5 898.77-20.8 899.85-18.4 900.92-16 900.92-13L900.92-13Q900.92-10 899.85-7.6 898.77-5.2 896.77-3.5 894.77-1.8 891.95-0.9 889.12 0 885.67 0L885.67 0ZM921.67-2.5L921.67-2.5Q924.12-2.5 926.24-3.35 928.37-4.2 930.42-5.75L930.42-5.75 932.42-2.75Q931.47-1.9 930.19-1.2 928.92-0.5 927.44-0.03 925.97 0.45 924.37 0.73 922.77 1 921.17 1L921.17 1Q917.62 1 914.69 0.08 911.77-0.85 909.72-2.63 907.67-4.4 906.54-7 905.42-9.6 905.42-13L905.42-13Q905.42-16.35 906.49-18.98 907.57-21.6 909.49-23.38 911.42-25.15 914.07-26.08 916.72-27 919.92-27L919.92-27Q922.92-27 925.57-26.1 928.22-25.2 930.17-23.48 932.12-21.75 933.27-19.3 934.42-16.85 934.42-13.75L934.42-13.75 934.42-10.25 913.07-10.25Q913.67-6.1 915.94-4.3 918.22-2.5 921.67-2.5ZM919.92-23.75L919.92-23.75Q918.47-23.75 917.22-23.2 915.97-22.65 915.04-21.45 914.12-20.25 913.54-18.35 912.97-16.45 912.92-13.75L912.92-13.75 926.92-13.75Q926.92-16.35 926.32-18.25 925.72-20.15 924.74-21.38 923.77-22.6 922.49-23.18 921.22-23.75 919.92-23.75ZM947.42-25.5L947.42 0 940.42 0 940.42-25.5 947.42-25.5ZM947.67-32.25L947.67-32.25Q947.67-30.75 946.64-29.63 945.62-28.5 943.92-28.5L943.92-28.5Q942.22-28.5 941.19-29.63 940.17-30.75 940.17-32.25L940.17-32.25Q940.17-33.75 941.19-34.88 942.22-36 943.92-36L943.92-36Q945.57-36 946.62-34.88 947.67-33.75 947.67-32.25ZM982.16-15.75L982.16 0 975.16 0 975.16-15.75Q975.16-19.35 973.36-20.93 971.56-22.5 968.16-22.5L968.16-22.5 961.66-22.5 961.66 0 954.66 0 954.66-26 968.16-26Q975.31-26 978.74-23.43 982.16-20.85 982.16-15.75L982.16-15.75ZM1009.16-22.5L1002.91-22.5Q999.31-22.5 997.24-20.28 995.16-18.05 995.16-13.5L995.16-13.5Q995.16-8.95 997.24-6.73 999.31-4.5 1002.91-4.5L1002.91-4.5 1009.16-4.5 1009.16-22.5ZM1016.16-26L1016.16-0.5Q1016.16 1.85 1015.26 3.78 1014.36 5.7 1012.59 7.1 1010.81 8.5 1008.14 9.25 1005.46 10 1001.91 10L1001.91 10Q1000.71 10 999.34 9.83 997.96 9.65 996.56 9.28 995.16 8.9 993.84 8.33 992.51 7.75 991.41 7L991.41 7 993.16 4Q994.86 5.15 997.01 5.83 999.16 6.5 1001.41 6.5L1001.41 6.5Q1005.16 6.5 1007.16 4.8 1009.16 3.1 1009.16-0.5L1009.16-0.5 1009.16-1 1002.91-1Q999.46-1 996.64-1.9 993.81-2.8 991.81-4.45 989.81-6.1 988.74-8.4 987.66-10.7 987.66-13.5L987.66-13.5Q987.66-16.3 988.74-18.6 989.81-20.9 991.81-22.55 993.81-24.2 996.64-25.1 999.46-26 1002.91-26L1002.91-26 1016.16-26ZM1029.96-10L1023.41-10 1022.66-35 1030.66-35 1029.96-10ZM1030.41-3.25L1030.41-3.25Q1030.41-1.75 1029.38-0.63 1028.36 0.5 1026.66 0.5L1026.66 0.5Q1024.96 0.5 1023.93-0.63 1022.91-1.75 1022.91-3.25L1022.91-3.25Q1022.91-4.75 1023.93-5.88 1024.96-7 1026.66-7L1026.66-7Q1028.31-7 1029.36-5.88 1030.41-4.75 1030.41-3.25Z" opacity="1" transform="matrix(1,0,0,1,0,0)" fill="#9d270a" class="undefined-text-1" data-fill-palette-color="secondary" id="text-1"></path></svg></g></svg></g></svg></g></svg></g><g transform="matrix(1,0,0,1,0,0.3806222954390961)"><svg viewBox="0 0 138.361364825149 152.24891817563986" height="152.24891817563986" width="138.361364825149"><g><svg xmlns="http://www.w3.org/2000/svg" xmlns:xlink="http://www.w3.org/1999/xlink" version="1.1" x="0" y="0" viewBox="19 18.133832931518555 43.5 47.86616516113281" enable-background="new 0 0 80 80" xml:space="preserve" height="152.24891817563986" width="138.361364825149" class="icon-icon-0" data-fill-palette-color="accent" id="icon-0"><g fill="#414a81" data-fill-palette-color="accent"><path fill="#414a81" d="M25.4 63c-1.2 0-2.3-0.3-3.4-0.9-1.9-1.1-3-3.1-3-5.2V24.3c0-2.1 1.1-4.1 3-5.2 2-1.2 4.3-1.3 6.3-0.2l31 16.3c2 1.1 3.2 3.1 3.2 5.4 0 2.3-1.3 4.4-3.3 5.5l-0.9-1.8c1.4-0.7 2.2-2.1 2.2-3.7 0-1.5-0.8-2.9-2.2-3.6l-31-16.3C26 20 24.4 20 23 20.9c-1.3 0.8-2 2.1-2 3.5v32.6c0 1.4 0.8 2.7 2 3.5 1.4 0.8 3 0.9 4.3 0.2l4.2-2.2 0.9 1.8-4.2 2.2C27.4 62.8 26.4 63 25.4 63z" data-fill-palette-color="accent"></path></g><g fill="#414a81" data-fill-palette-color="accent"><g fill="#414a81" data-fill-palette-color="accent"><path fill="#414a81" d="M46.8 66h-1.6c-1 0-1.9-0.8-2-1.8l-0.1-1.6c-0.6-0.2-1.2-0.4-1.8-0.8l-1.2 1c-0.8 0.7-2 0.6-2.7-0.1l-1.1-1.1c-0.7-0.7-0.8-1.9-0.1-2.7l1-1.2c-0.3-0.6-0.6-1.2-0.8-1.8l-1.6-0.1c-1-0.1-1.9-0.9-1.9-2v-1.6c0-1 0.8-1.9 1.9-2l1.6-0.1c0.2-0.6 0.4-1.2 0.8-1.8l-1-1.2c-0.7-0.8-0.6-2 0.1-2.7l1.1-1.1c0.7-0.7 1.9-0.8 2.7-0.1l1.2 1c0.6-0.3 1.2-0.6 1.8-0.8l0.1-1.6c0.1-1 0.9-1.8 2-1.8h1.6c1 0 1.9 0.8 2 1.8l0.1 1.6c0.6 0.2 1.2 0.4 1.8 0.8l1.2-1c0.8-0.7 2-0.6 2.7 0.1l1.1 1.1c0.7 0.7 0.8 1.9 0.1 2.7l-1 1.2c0.3 0.6 0.6 1.2 0.8 1.8l1.6 0.1c1 0.1 1.9 0.9 1.9 2v1.6c0 1-0.8 1.9-1.9 2l-1.6 0.1c-0.2 0.6-0.4 1.2-0.8 1.8l1 1.2c0.7 0.8 0.6 2-0.1 2.7l-1.1 1.1c-0.7 0.7-1.9 0.8-2.7 0.1l-1.2-1c-0.6 0.3-1.2 0.6-1.8 0.8l-0.1 1.6C48.7 65.2 47.8 66 46.8 66zM46.8 64v1V64C46.8 64 46.8 64 46.8 64L46.8 64zM41.1 59.3l0.6 0.4c0.8 0.5 1.7 0.9 2.6 1.1L45 61l0.2 3 1.6 0 0.2-3 0.7-0.2c0.9-0.2 1.8-0.6 2.6-1.1l0.6-0.4 2.3 2 1.1-1.1-2-2.3 0.4-0.6c0.5-0.8 0.9-1.7 1.1-2.6L54 54l3-0.2 0-1.6L54 52l-0.2-0.7c-0.2-0.9-0.6-1.8-1.1-2.6l-0.4-0.6 2-2.3-1.1-1.1-2.3 2-0.6-0.4c-0.8-0.5-1.7-0.9-2.6-1.1L47 45l-0.2-3-1.6 0L45 45l-0.7 0.2c-0.9 0.2-1.8 0.6-2.6 1.1l-0.6 0.4-2.3-2-1.1 1.1 2 2.3-0.4 0.6c-0.5 0.8-0.9 1.7-1.1 2.6L38 52l-3 0.2 0 1.6 3 0.2 0.2 0.7c0.2 0.9 0.6 1.8 1.1 2.6l0.4 0.6-2 2.3 1.1 1.1L41.1 59.3z" data-fill-palette-color="accent"></path></g><g fill="#414a81" data-fill-palette-color="accent"><path fill="#414a81" d="M46 57.4c-2.4 0-4.4-2-4.4-4.4s2-4.4 4.4-4.4 4.4 2 4.4 4.4S48.4 57.4 46 57.4zM46 50.6c-1.3 0-2.4 1.1-2.4 2.4s1.1 2.4 2.4 2.4 2.4-1.1 2.4-2.4S47.3 50.6 46 50.6z" data-fill-palette-color="accent"></path></g></g></svg></g></svg></g></svg></g><defs></defs></svg><rect width="395.52" height="102.51408058721537" fill="none" stroke="none" visibility="hidden"></rect></g></svg></g></svg>