<svg xmlns="http://www.w3.org/2000/svg" version="1.1" xmlns:xlink="http://www.w3.org/1999/xlink" xmlns:svgjs="http://svgjs.dev/svgjs" width="1000" height="1000" viewBox="0 0 1000 1000"><rect width="1000" height="1000" fill="#ffffff"></rect><g transform="matrix(0.7,0,0,0.7,149.57575757575756,389.91206335479507)"><svg viewBox="0 0 396 125" data-background-color="#ffffff" preserveAspectRatio="xMidYMid meet" height="315" width="1000" xmlns="http://www.w3.org/2000/svg" xmlns:xlink="http://www.w3.org/1999/xlink"><g id="tight-bounds" transform="matrix(1,0,0,1,0.2400000000000091,-0.09187265011058798)"><svg viewBox="0 0 395.52 125.18374530022115" height="125.18374530022115" width="395.52"><g><svg viewBox="0 0 634.4809561346117 200.81589403973507" height="125.18374530022115" width="395.52"><g><rect width="9.054892283252979" height="100.90998675496687" x="206.2021573506965" y="49.9529536423841" fill="#202b7c" opacity="1" stroke-width="0" stroke="transparent" fill-opacity="1" class="rect-i$-0" data-fill-palette-color="primary" rx="1%" id="i$-0" data-palette-color="#202b7c"></rect></g><g transform="matrix(1,0,0,1,238.9609561346117,50.20397350993377)"><svg viewBox="0 0 395.52 100.40794701986754" height="100.40794701986754" width="395.52"><g id="textblocktransform"><svg viewBox="0 0 395.52 100.40794701986754" height="100.40794701986754" width="395.52" id="textblock"><g><svg viewBox="0 0 395.52 100.40794701986754" height="100.40794701986754" width="395.52"><g transform="matrix(1,0,0,1,0,0)"><svg width="395.52" viewBox="4 -28.75 113.25 28.75" height="100.40794701986754" data-palette-color="#202b7c"><path d="M4-25.3L4-25.3 9.85-28.75 20.2-28.75 20.2-23.1 10.3-23.1 10.3-5.85 20-5.85 20 0 9.85 0 4-3.4 4-25.3ZM38.45-25.3L38.45-25.3 32.8-28.75 22.45-28.75 22.45-23.1 32.15-23.1 32.15-5.85 22.45-5.85 22.45 0 32.8 0 38.45-3.4 38.45-25.3ZM77.8-28.75L77.8-23.1 63.4-23.1 63.4 0 56.5 0 56.5-23.1 43.35-23.1 43.35-28.75 77.8-28.75ZM82.8-14.75L82.8-25.3 88.5-28.75 98.8-28.75 98.8-22.85 88.9-22.85 88.9-17.2 98.8-17.2 98.8-11.35 88.5-11.35 82.8-14.75ZM117.25-3.4L117.25-13.75 111.35-17.2 101.05-17.2 101.05-11.35 110.95-11.35 110.95-5.65 101.25-5.65 101.25 0 111.35 0 117.25-3.4ZM82.8-9.1L89.1-9.1 89.1-5.65 98.8-5.65 98.8 0 88.65 0 82.8-3.4 82.8-9.1ZM110.95-19.45L117.25-19.45 117.25-25.3 111.35-28.75 101.05-28.75 101.05-22.85 110.95-22.85 110.95-19.45Z" opacity="1" transform="matrix(1,0,0,1,0,0)" fill="#202b7c" class="undefined-text-0" data-fill-palette-color="primary" id="text-0"></path></svg></g></svg></g></svg></g></svg></g><g><svg viewBox="0 0 182.49825085003425 200.81589403973507" height="200.81589403973507" width="182.49825085003425"><g><svg xmlns="http://www.w3.org/2000/svg" xmlns:xlink="http://www.w3.org/1999/xlink" version="1.1" x="0" y="0" viewBox="19 18.13383498175683 43.5 47.866165018243166" enable-background="new 0 0 80 80" xml:space="preserve" height="200.81589403973507" width="182.49825085003425" class="icon-icon-0" data-fill-palette-color="accent" id="icon-0"><g fill="#202b7c" data-fill-palette-color="accent"><path fill="#202b7c" d="M25.4 63c-1.2 0-2.3-0.3-3.4-0.9-1.9-1.1-3-3.1-3-5.2V24.3c0-2.1 1.1-4.1 3-5.2 2-1.2 4.3-1.3 6.3-0.2l31 16.3c2 1.1 3.2 3.1 3.2 5.4 0 2.3-1.3 4.4-3.3 5.5l-0.9-1.8c1.4-0.7 2.2-2.1 2.2-3.7 0-1.5-0.8-2.9-2.2-3.6l-31-16.3C26 20 24.4 20 23 20.9c-1.3 0.8-2 2.1-2 3.5v32.6c0 1.4 0.8 2.7 2 3.5 1.4 0.8 3 0.9 4.3 0.2l4.2-2.2 0.9 1.8-4.2 2.2C27.4 62.8 26.4 63 25.4 63z" data-fill-palette-color="accent"></path></g><g fill="#202b7c" data-fill-palette-color="accent"><g fill="#202b7c" data-fill-palette-color="accent"><path fill="#202b7c" d="M46.8 66h-1.6c-1 0-1.9-0.8-2-1.8l-0.1-1.6c-0.6-0.2-1.2-0.4-1.8-0.8l-1.2 1c-0.8 0.7-2 0.6-2.7-0.1l-1.1-1.1c-0.7-0.7-0.8-1.9-0.1-2.7l1-1.2c-0.3-0.6-0.6-1.2-0.8-1.8l-1.6-0.1c-1-0.1-1.9-0.9-1.9-2v-1.6c0-1 0.8-1.9 1.9-2l1.6-0.1c0.2-0.6 0.4-1.2 0.8-1.8l-1-1.2c-0.7-0.8-0.6-2 0.1-2.7l1.1-1.1c0.7-0.7 1.9-0.8 2.7-0.1l1.2 1c0.6-0.3 1.2-0.6 1.8-0.8l0.1-1.6c0.1-1 0.9-1.8 2-1.8h1.6c1 0 1.9 0.8 2 1.8l0.1 1.6c0.6 0.2 1.2 0.4 1.8 0.8l1.2-1c0.8-0.7 2-0.6 2.7 0.1l1.1 1.1c0.7 0.7 0.8 1.9 0.1 2.7l-1 1.2c0.3 0.6 0.6 1.2 0.8 1.8l1.6 0.1c1 0.1 1.9 0.9 1.9 2v1.6c0 1-0.8 1.9-1.9 2l-1.6 0.1c-0.2 0.6-0.4 1.2-0.8 1.8l1 1.2c0.7 0.8 0.6 2-0.1 2.7l-1.1 1.1c-0.7 0.7-1.9 0.8-2.7 0.1l-1.2-1c-0.6 0.3-1.2 0.6-1.8 0.8l-0.1 1.6C48.7 65.2 47.8 66 46.8 66zM46.8 64v1V64C46.8 64 46.8 64 46.8 64L46.8 64zM41.1 59.3l0.6 0.4c0.8 0.5 1.7 0.9 2.6 1.1L45 61l0.2 3 1.6 0 0.2-3 0.7-0.2c0.9-0.2 1.8-0.6 2.6-1.1l0.6-0.4 2.3 2 1.1-1.1-2-2.3 0.4-0.6c0.5-0.8 0.9-1.7 1.1-2.6L54 54l3-0.2 0-1.6L54 52l-0.2-0.7c-0.2-0.9-0.6-1.8-1.1-2.6l-0.4-0.6 2-2.3-1.1-1.1-2.3 2-0.6-0.4c-0.8-0.5-1.7-0.9-2.6-1.1L47 45l-0.2-3-1.6 0L45 45l-0.7 0.2c-0.9 0.2-1.8 0.6-2.6 1.1l-0.6 0.4-2.3-2-1.1 1.1 2 2.3-0.4 0.6c-0.5 0.8-0.9 1.7-1.1 2.6L38 52l-3 0.2 0 1.6 3 0.2 0.2 0.7c0.2 0.9 0.6 1.8 1.1 2.6l0.4 0.6-2 2.3 1.1 1.1L41.1 59.3z" data-fill-palette-color="accent"></path></g><g fill="#202b7c" data-fill-palette-color="accent"><path fill="#202b7c" d="M46 57.4c-2.4 0-4.4-2-4.4-4.4s2-4.4 4.4-4.4 4.4 2 4.4 4.4S48.4 57.4 46 57.4zM46 50.6c-1.3 0-2.4 1.1-2.4 2.4s1.1 2.4 2.4 2.4 2.4-1.1 2.4-2.4S47.3 50.6 46 50.6z" data-fill-palette-color="accent"></path></g></g></svg></g></svg></g></svg></g><defs></defs></svg><rect width="395.52" height="125.18374530022115" fill="none" stroke="none" visibility="hidden"></rect></g></svg></g></svg>